<svg width="31" height="26" viewBox="0 0 31 26" fill="none" xmlns="http://www.w3.org/2000/svg">
<path d="M26.1225 3.1148C25.8618 2.43053 25.6011 1.74626 25.3187 1.01855C26.2745 1.30094 26.6221 2.12641 27.1434 2.90844C27.3715 2.3002 27.5996 1.68109 27.8494 0.996824C28.2622 1.77885 28.0449 2.53915 27.882 3.38634C28.5772 3.1148 29.2397 2.78896 30 3.08222C29.4135 3.37548 28.8596 3.65787 28.197 3.99458C28.9356 4.47248 29.685 4.78746 29.9131 5.64551C29.3049 5.3957 28.7401 5.15675 28.1644 4.9178C28.4034 5.73241 28.8052 6.46012 28.5337 7.31817C28.0993 6.68821 27.6648 6.06911 27.2412 5.45001L27.0783 5.48259C26.9588 6.4927 27.0457 7.57885 26.003 8.37173V5.33053C25.9487 5.30881 25.8944 5.29795 25.8401 5.27622C25.3948 5.65637 24.8951 5.99308 24.515 6.42754C22.5708 8.65413 21.1697 11.174 20.4202 14.0523C20.1052 15.2579 20.4637 15.9965 21.6258 16.4418C23.8307 17.289 26.0573 17.995 28.4577 17.9841C28.4034 18.7335 27.9255 19.1245 27.0891 18.9725C25.7206 18.7227 24.3629 18.4403 23.027 18.0601C21.8322 17.7234 20.67 17.2455 19.5079 16.8111C16.7599 15.8009 14.0228 15.877 11.2858 16.8654C9.56966 17.4845 7.8427 18.071 6.09401 18.6032C5.32285 18.8313 4.49738 18.9182 3.69363 18.9942C3.03108 19.0594 2.6618 18.7118 2.53146 18.071C3.51985 17.9298 4.54082 17.8863 5.50749 17.6365C6.9412 17.2672 8.34232 16.7785 9.73258 16.2788C10.4603 16.0182 10.8513 15.2362 10.6775 14.5193C9.83034 10.9567 8.13596 7.88297 5.36629 5.45001C5.30112 5.3957 5.22509 5.36312 4.997 5.22192V8.38259C3.96517 7.58971 4.00861 6.51443 3.94345 5.48259C3.88914 5.48259 3.82397 5.46087 3.76966 5.45001C3.33521 6.05825 2.91161 6.66649 2.45543 7.30731C2.20562 6.46012 2.55318 5.75413 2.94419 5.059C2.92247 5.01555 2.88989 4.97211 2.86817 4.92866C2.29251 5.16761 1.70599 5.3957 1.07603 5.65637C1.30412 4.82004 2.01011 4.48334 2.82472 4.03802C2.14045 3.69046 1.58652 3.3972 1 3.09308C1.71685 2.81068 2.35768 3.10394 3.06367 3.36461C2.97678 2.56087 2.70524 1.77885 3.1397 0.996824C3.37865 1.67023 3.59588 2.28933 3.87828 3.07136C4.36704 2.159 4.70374 1.31181 5.64869 1.02941C5.37715 1.74626 5.11648 2.44139 4.84494 3.12566C4.88839 3.16911 4.92097 3.20169 4.96442 3.24514C5.93109 2.71293 6.89775 2.159 8.04906 2.55001C7.22359 3.07135 6.40899 3.58184 5.6161 4.08147C6.34382 4.84177 6.9955 5.48259 7.60374 6.16686C9.52622 8.32829 10.7861 10.8481 11.5464 13.6287C11.8071 14.5953 12.2959 15.095 13.067 15.171C14.0554 15.2579 14.9135 14.6279 14.9352 13.6395C14.9787 11.4129 14.9461 9.18634 14.9352 6.95974C14.9352 6.92716 14.9026 6.89458 14.8483 6.80769C13.697 7.37248 12.7412 8.19795 11.818 9.21892C11.7745 7.52454 12.8715 6.6339 14.0228 5.61293H11.1989C11.9266 4.64626 13.0019 4.51592 14.0989 4.46162C14.1315 4.40731 14.1532 4.36387 14.1858 4.30956C13.5667 3.71218 12.9476 3.12566 12.2742 2.47398C13.4146 2.34364 14.1966 2.96274 15.033 3.65787C15.0873 2.65862 15.0221 1.74626 15.891 0.985962V3.46237C15.9345 3.49495 15.9888 3.51667 16.0322 3.54926C16.8142 2.90843 17.6071 2.32192 18.6933 2.47398C18.0416 3.08222 17.4116 3.66873 16.6622 4.36387C17.8895 4.57023 19.0191 4.58109 19.7251 5.5912H17.064C18.1611 6.57959 19.1712 7.48109 19.1277 8.96911C18.1502 8.18709 17.1835 7.40506 16.2169 6.62304C16.1625 6.65562 16.1082 6.68821 16.0539 6.7208C16.0322 6.87286 15.9996 7.01405 15.9996 7.16611C15.9996 9.2515 15.9996 11.326 15.9996 13.4114C15.9996 14.3564 16.597 15.0624 17.4442 15.171C18.3783 15.2796 19.0734 14.8126 19.3341 13.8567C20.3659 10.1204 22.1906 6.87285 25.1992 4.36387C25.2427 4.33128 25.2644 4.27698 25.3839 4.11405C24.5584 3.59271 23.7547 3.08222 22.9184 2.56087C24.0697 2.18072 25.0255 2.71293 25.9813 3.26686C26.0247 3.22342 26.0682 3.17997 26.1116 3.13653L26.1225 3.1148Z" fill="#264653" stroke="#264653" stroke-width="0.5"/>
<path d="M25.4601 21.1556C25.2212 21.9593 24.9497 22.1983 24.2437 22.1548C22.6905 22.0462 21.2676 21.4923 19.8122 20.9927C18.6066 20.5799 17.3684 20.2106 16.1085 20.0043C14.6856 19.7762 13.3279 20.2324 11.9811 20.6777C10.4062 21.199 8.82044 21.6769 7.22381 22.1005C6.268 22.3503 5.82269 22.0679 5.56201 21.1882C6.02905 21.1447 6.50696 21.1882 6.93055 21.0578C8.42943 20.656 9.9283 20.2649 11.3837 19.7436C13.2736 19.0593 15.1852 18.6792 17.1729 19.0593C18.0309 19.2222 18.8781 19.5155 19.7144 19.8088C21.5717 20.4604 23.4073 21.1882 25.471 21.1447L25.4601 21.1556Z" fill="#264653" stroke="#264653" stroke-width="0.5"/>
<path d="M8.49463 24.0448C10.0478 24.0013 11.4272 23.48 12.8066 22.9478C14.6639 22.2309 16.5104 22.2635 18.3568 23.0021C19.6819 23.5234 21.0287 24.0013 22.4733 24.0665C22.3647 24.7399 22.0388 25.0875 21.4306 24.968C20.4096 24.7725 19.3669 24.5444 18.422 24.1534C16.4886 23.3496 14.6205 23.3171 12.698 24.1208C11.8725 24.4684 10.9928 24.7182 10.1238 24.9354C9.20062 25.1635 8.74444 24.9028 8.50549 24.0556L8.49463 24.0448Z" fill="#264653" stroke="#264653" stroke-width="0.5"/>
</svg>
