<svg width="103" height="26" viewBox="0 0 103 26" fill="none" xmlns="http://www.w3.org/2000/svg">
<path d="M26.1225 3.1148C25.8618 2.43053 25.6011 1.74626 25.3187 1.01855C26.2745 1.30094 26.6221 2.12641 27.1434 2.90844C27.3715 2.3002 27.5996 1.68109 27.8494 0.996824C28.2622 1.77885 28.0449 2.53915 27.882 3.38634C28.5772 3.1148 29.2397 2.78896 30 3.08222C29.4135 3.37548 28.8596 3.65787 28.197 3.99458C28.9356 4.47248 29.685 4.78746 29.9131 5.64551C29.3049 5.3957 28.7401 5.15675 28.1644 4.9178C28.4034 5.73241 28.8052 6.46012 28.5337 7.31817C28.0993 6.68821 27.6648 6.06911 27.2412 5.45001L27.0783 5.48259C26.9588 6.4927 27.0457 7.57885 26.003 8.37173V5.33053C25.9487 5.30881 25.8944 5.29795 25.8401 5.27622C25.3948 5.65637 24.8951 5.99308 24.515 6.42754C22.5708 8.65413 21.1697 11.174 20.4202 14.0523C20.1052 15.2579 20.4637 15.9965 21.6258 16.4418C23.8307 17.289 26.0573 17.995 28.4577 17.9841C28.4034 18.7335 27.9255 19.1245 27.0891 18.9725C25.7206 18.7227 24.3629 18.4403 23.027 18.0601C21.8322 17.7234 20.67 17.2455 19.5079 16.8111C16.7599 15.8009 14.0228 15.877 11.2858 16.8654C9.56966 17.4845 7.8427 18.071 6.09401 18.6032C5.32285 18.8313 4.49738 18.9182 3.69363 18.9942C3.03108 19.0594 2.6618 18.7118 2.53146 18.071C3.51985 17.9298 4.54082 17.8863 5.50749 17.6365C6.9412 17.2672 8.34232 16.7785 9.73258 16.2788C10.4603 16.0182 10.8513 15.2362 10.6775 14.5193C9.83034 10.9567 8.13596 7.88297 5.36629 5.45001C5.30112 5.3957 5.22509 5.36312 4.997 5.22192V8.38259C3.96517 7.58971 4.00861 6.51443 3.94345 5.48259C3.88914 5.48259 3.82397 5.46087 3.76966 5.45001C3.33521 6.05825 2.91161 6.66649 2.45543 7.30731C2.20562 6.46012 2.55318 5.75413 2.94419 5.059C2.92247 5.01555 2.88989 4.97211 2.86817 4.92866C2.29251 5.16761 1.70599 5.3957 1.07603 5.65637C1.30412 4.82004 2.01011 4.48334 2.82472 4.03802C2.14045 3.69046 1.58652 3.3972 1 3.09308C1.71685 2.81068 2.35768 3.10394 3.06367 3.36461C2.97678 2.56087 2.70524 1.77885 3.1397 0.996824C3.37865 1.67023 3.59588 2.28933 3.87828 3.07136C4.36704 2.159 4.70374 1.31181 5.64869 1.02941C5.37715 1.74626 5.11648 2.44139 4.84494 3.12566C4.88839 3.16911 4.92097 3.20169 4.96442 3.24514C5.93109 2.71293 6.89775 2.159 8.04906 2.55001C7.22359 3.07135 6.40899 3.58184 5.6161 4.08147C6.34382 4.84177 6.9955 5.48259 7.60374 6.16686C9.52622 8.32829 10.7861 10.8481 11.5464 13.6287C11.8071 14.5953 12.2959 15.095 13.067 15.171C14.0554 15.2579 14.9135 14.6279 14.9352 13.6395C14.9787 11.4129 14.9461 9.18634 14.9352 6.95974C14.9352 6.92716 14.9026 6.89458 14.8483 6.80769C13.697 7.37248 12.7412 8.19795 11.818 9.21892C11.7745 7.52454 12.8715 6.6339 14.0228 5.61293H11.1989C11.9266 4.64626 13.0019 4.51592 14.0989 4.46162C14.1315 4.40731 14.1532 4.36387 14.1858 4.30956C13.5667 3.71218 12.9476 3.12566 12.2742 2.47398C13.4146 2.34364 14.1966 2.96274 15.033 3.65787C15.0873 2.65862 15.0221 1.74626 15.891 0.985962V3.46237C15.9345 3.49495 15.9888 3.51667 16.0322 3.54926C16.8142 2.90843 17.6071 2.32192 18.6933 2.47398C18.0416 3.08222 17.4116 3.66873 16.6622 4.36387C17.8895 4.57023 19.0191 4.58109 19.7251 5.5912H17.064C18.1611 6.57959 19.1712 7.48109 19.1277 8.96911C18.1502 8.18709 17.1835 7.40506 16.2169 6.62304C16.1625 6.65562 16.1082 6.68821 16.0539 6.7208C16.0322 6.87286 15.9996 7.01405 15.9996 7.16611C15.9996 9.2515 15.9996 11.326 15.9996 13.4114C15.9996 14.3564 16.597 15.0624 17.4442 15.171C18.3783 15.2796 19.0734 14.8126 19.3341 13.8567C20.3659 10.1204 22.1906 6.87285 25.1992 4.36387C25.2427 4.33128 25.2644 4.27698 25.3839 4.11405C24.5584 3.59271 23.7547 3.08222 22.9184 2.56087C24.0697 2.18072 25.0255 2.71293 25.9813 3.26686C26.0247 3.22342 26.0682 3.17997 26.1116 3.13653L26.1225 3.1148Z" fill="#264653" stroke="#264653" stroke-width="0.5"/>
<path d="M25.4601 21.1556C25.2212 21.9593 24.9497 22.1983 24.2437 22.1548C22.6905 22.0462 21.2676 21.4923 19.8122 20.9927C18.6066 20.5799 17.3684 20.2106 16.1085 20.0043C14.6856 19.7762 13.3279 20.2324 11.9811 20.6777C10.4062 21.199 8.82044 21.6769 7.22381 22.1005C6.268 22.3503 5.82269 22.0679 5.56201 21.1882C6.02905 21.1447 6.50696 21.1882 6.93055 21.0578C8.42943 20.656 9.9283 20.2649 11.3837 19.7436C13.2736 19.0593 15.1852 18.6792 17.1729 19.0593C18.0309 19.2222 18.8781 19.5155 19.7144 19.8088C21.5717 20.4604 23.4073 21.1882 25.471 21.1447L25.4601 21.1556Z" fill="#264653" stroke="#264653" stroke-width="0.5"/>
<path d="M8.49463 24.0448C10.0478 24.0013 11.4272 23.48 12.8066 22.9478C14.6639 22.2309 16.5104 22.2635 18.3568 23.0021C19.6819 23.5234 21.0287 24.0013 22.4733 24.0665C22.3647 24.7399 22.0388 25.0875 21.4306 24.968C20.4096 24.7725 19.3669 24.5444 18.422 24.1534C16.4886 23.3496 14.6205 23.3171 12.698 24.1208C11.8725 24.4684 10.9928 24.7182 10.1238 24.9354C9.20062 25.1635 8.74444 24.9028 8.50549 24.0556L8.49463 24.0448Z" fill="#264653" stroke="#264653" stroke-width="0.5"/>
<path d="M94.5875 20.4203L90.2168 9.49353H94.3645L97.0405 18.4803H95.4126L98.1108 9.49353H102.259L97.7764 20.4203H94.5875ZM92.0008 25.014L95.2342 17.9005L97.7764 20.4203L95.9032 25.014H92.0008Z" fill="#264653"/>
<path d="M82.805 20.398V8.80226C82.805 7.88055 83.0057 7.05546 83.4071 6.32701C83.8085 5.58369 84.3808 4.98903 85.1242 4.54304C85.8823 4.09705 86.7892 3.87405 87.8447 3.87405C88.6326 3.87405 89.3239 4.00785 89.9186 4.27545C90.5132 4.52818 91.0261 4.8701 91.4572 5.30123L89.0266 7.73188C88.9076 7.59808 88.759 7.50145 88.5806 7.44199C88.4171 7.36765 88.2238 7.33049 88.0008 7.33049C87.5994 7.33049 87.2798 7.44942 87.0419 7.68728C86.8041 7.92514 86.6851 8.24477 86.6851 8.64616V20.398H82.805ZM80.4858 12.727V9.49355H89.7625V12.727H80.4858Z" fill="#264653"/>
<path d="M72.5794 20.6211C71.5685 20.6211 70.6691 20.3758 69.8812 19.8852C69.0933 19.3946 68.4763 18.7256 68.0303 17.8782C67.5843 17.016 67.3613 16.0422 67.3613 14.957C67.3613 13.8568 67.5843 12.8757 68.0303 12.0134C68.4763 11.1512 69.0933 10.4822 69.8812 10.0065C70.6691 9.51586 71.5685 9.27057 72.5794 9.27057C73.2633 9.27057 73.8877 9.39693 74.4526 9.64966C75.0175 9.88752 75.4784 10.2295 75.8352 10.6754C76.2068 11.1214 76.4298 11.6269 76.5042 12.1918V17.6775C76.4298 18.2573 76.2068 18.7702 75.8352 19.2162C75.4784 19.6473 75.0175 19.9892 74.4526 20.242C73.8877 20.4947 73.2633 20.6211 72.5794 20.6211ZM73.4045 17.1646C74.0438 17.1646 74.5567 16.9565 74.9432 16.5402C75.3446 16.124 75.5453 15.5888 75.5453 14.9347C75.5453 14.5035 75.4561 14.1244 75.2777 13.7974C75.0993 13.4703 74.8466 13.2102 74.5195 13.0169C74.2073 12.8236 73.8431 12.727 73.4268 12.727C73.0106 12.727 72.6389 12.8236 72.3118 13.0169C71.9996 13.2102 71.7469 13.4778 71.5536 13.8197C71.3753 14.1467 71.2861 14.5184 71.2861 14.9347C71.2861 15.3658 71.3753 15.7523 71.5536 16.0942C71.732 16.4213 71.9848 16.6815 72.3118 16.8747C72.6389 17.068 73.0031 17.1646 73.4045 17.1646ZM75.3892 20.3981V17.4768L75.9467 14.8009L75.3892 12.1695V9.49356H79.2024V20.3981H75.3892Z" fill="#264653"/>
<path d="M62.5381 20.6433C61.3786 20.6433 60.3305 20.398 59.3939 19.9074C58.4722 19.4169 57.7437 18.7404 57.2085 17.8782C56.6734 17.0159 56.4058 16.0422 56.4058 14.9569C56.4058 13.8568 56.6734 12.8756 57.2085 12.0134C57.7586 11.1511 58.4945 10.4747 59.4162 9.98414C60.3528 9.47868 61.4083 9.22595 62.5827 9.22595C63.4301 9.22595 64.2032 9.36718 64.9019 9.64964C65.6006 9.93211 66.2399 10.3558 66.8197 10.9207L64.3667 13.3737C64.1437 13.1507 63.8835 12.9871 63.5862 12.8831C63.3038 12.7642 62.9693 12.7047 62.5827 12.7047C62.1665 12.7047 61.7874 12.8013 61.4455 12.9946C61.1184 13.173 60.8508 13.4257 60.6427 13.7528C60.4494 14.0798 60.3528 14.4738 60.3528 14.9346C60.3528 15.3806 60.4494 15.7746 60.6427 16.1165C60.8508 16.4436 61.1184 16.7037 61.4455 16.897C61.7874 17.0903 62.1665 17.1869 62.5827 17.1869C62.999 17.1869 63.3558 17.12 63.6531 16.9862C63.9504 16.8524 64.2106 16.6591 64.4336 16.4064L66.9089 18.8594C66.2993 19.454 65.6378 19.9 64.9242 20.1973C64.2255 20.4947 63.4301 20.6433 62.5381 20.6433Z" fill="#264653"/>
<path d="M49.5368 20.6433C48.3624 20.6433 47.3143 20.398 46.3926 19.9074C45.4858 19.402 44.7647 18.7181 44.2295 17.8559C43.6944 16.9788 43.4268 15.9976 43.4268 14.9123C43.4268 13.8271 43.6869 12.8608 44.2072 12.0134C44.7424 11.1511 45.4709 10.4747 46.3926 9.98414C47.3143 9.47868 48.355 9.22595 49.5145 9.22595C50.6741 9.22595 51.7073 9.47868 52.6142 9.98414C53.5359 10.4747 54.2643 11.1511 54.7995 12.0134C55.3347 12.8608 55.6023 13.8271 55.6023 14.9123C55.6023 15.9976 55.3347 16.9788 54.7995 17.8559C54.2792 18.7181 53.5582 19.402 52.6365 19.9074C51.7296 20.398 50.6964 20.6433 49.5368 20.6433ZM49.5145 17.1869C49.9457 17.1869 50.3173 17.0977 50.6295 16.9193C50.9566 16.726 51.2093 16.4584 51.3877 16.1165C51.5661 15.7746 51.6553 15.3806 51.6553 14.9346C51.6553 14.4887 51.5587 14.1021 51.3654 13.7751C51.187 13.4331 50.9417 13.173 50.6295 12.9946C50.3173 12.8013 49.9457 12.7047 49.5145 12.7047C49.0983 12.7047 48.7266 12.8013 48.3996 12.9946C48.0725 13.1878 47.8198 13.4554 47.6414 13.7974C47.463 14.1244 47.3738 14.511 47.3738 14.9569C47.3738 15.3881 47.463 15.7746 47.6414 16.1165C47.8198 16.4584 48.0725 16.726 48.3996 16.9193C48.7266 17.0977 49.0983 17.1869 49.5145 17.1869Z" fill="#264653"/>
<path d="M38 20.398V4.14163H41.8801V20.398H38Z" fill="#264653"/>
</svg>
